<?xml version="1.0" encoding="utf-8" ?>
<svg xmlns="http://www.w3.org/2000/svg" xmlns:xlink="http://www.w3.org/1999/xlink" width="2048" height="2048">
	<path fill="#6B9298" d="M292.209 1511.89C295.739 1510.35 329.133 1522.58 335.964 1524.47C348.001 1543.51 360.028 1556.31 382.722 1561.31C401.455 1565.44 423.043 1565.05 441.824 1561.14C454.189 1573.23 465.47 1578.5 482.003 1583.2C492.406 1597.17 503.475 1606.38 521.363 1609.08C527.881 1610.07 534.322 1609.88 540.881 1609.53C555.044 1606.54 566.177 1601.36 578.085 1593.22C593.541 1600.92 606.817 1614.28 621.793 1623.13C613.569 1629.57 605.763 1634.93 596.25 1639.28C592.294 1641.09 587.835 1642.33 584.042 1644.38C598.425 1653.54 614.774 1662.17 628.168 1672.58C627.891 1672.5 627.615 1672.41 627.336 1672.33C626.873 1672.2 626.405 1672.09 625.942 1671.96C618.558 1669.8 610.322 1670.24 602.638 1669.93C576.195 1668.89 558.008 1662.9 538.4 1644.78C520.05 1642.55 504.335 1641.71 486.552 1635.65C455.082 1624.91 318.388 1553.03 298.54 1531.8C292.497 1525.34 291.89 1520.41 292.209 1511.89Z"/>
	<path fill="#A4BFC4" d="M578.085 1593.22C593.541 1600.92 606.817 1614.28 621.793 1623.13C613.569 1629.57 605.763 1634.93 596.25 1639.28C592.294 1641.09 587.835 1642.33 584.042 1644.38C575.165 1637.75 544.036 1619.17 540.881 1609.53C555.044 1606.54 566.177 1601.36 578.085 1593.22Z"/>
	<path fill="#E7EEF3" d="M277.784 840.491C278.824 836.986 280.011 833.493 280.437 829.851C285.284 833.999 290.349 838.004 294.544 842.832C290.959 848.925 288.717 853.73 290.543 860.877C292.959 870.329 301.935 878.325 308.64 884.997C302.268 907.04 299.616 945.727 297.878 969.363C287.385 1112.08 316.633 1245.37 385.699 1370.81C394.136 1386.13 403.175 1401.35 413.338 1415.6C406.571 1421.78 400.367 1428.05 394.818 1435.36C389.447 1434.65 378.989 1434.62 375.721 1430.14C375.39 1429.69 375.085 1429.21 374.768 1428.75C374.66 1428.61 374.547 1428.47 374.444 1428.33C350.853 1395.41 329.744 1349.78 314.198 1312.36C261.816 1186.27 247.115 1055.16 263.996 919.98C267.354 893.089 273.281 867.119 277.784 840.491Z"/>
	<path fill="#7B8794" d="M1514.52 435.517C1516.62 435.636 1518.75 435.842 1520.64 436.842C1538.3 446.208 1590.37 494.124 1605.8 509.206C1616.17 519.344 1626.09 530.028 1635.74 540.85C1768.41 689.635 1839.2 895.336 1827.42 1094.1C1815.91 1288.27 1747.09 1470.02 1599.23 1600.89C1442.33 1739.77 1237.81 1840.69 1023.86 1827.43C910.671 1820.41 803.773 1788.61 707.516 1728.25C691.47 1718.19 676.657 1707.2 661.723 1695.56C657.386 1692.17 652.007 1688.87 648.188 1685.03C648.062 1684.9 648.036 1684.7 647.96 1684.54C649.711 1684.67 649.18 1684.43 650.554 1685.22C732.6 1732.13 826.951 1763.6 920.438 1776.56C1121.16 1804.38 1328.65 1744.35 1489.31 1622.36C1653.81 1497.46 1754.71 1316.3 1782.51 1112.69C1784.51 1108.7 1783.95 1098.81 1784.44 1094.12C1787.8 1063 1787.92 1031.54 1788.12 1000.28L1787.45 995.336C1786.74 975.189 1784.46 954.995 1782 934.998C1762.38 775.266 1693.98 624.648 1586.15 505.154C1564.15 480.77 1540.45 455.774 1514.52 435.517Z"/>
	<path fill="#586770" d="M1788.12 1000.28C1797.54 1002.99 1812.18 1005.57 1817.16 1015.2C1820 1020.7 1818.48 1027.04 1816.46 1032.52C1813.7 1039.99 1789.55 1094.64 1785.16 1096.64L1784.44 1094.12C1787.8 1063 1787.92 1031.54 1788.12 1000.28Z"/>
	<path fill="#E7EEF3" d="M1713.63 1247.93C1726.04 1235.48 1758.75 1162.09 1767.14 1142.76C1770.32 1135.44 1776.53 1115.25 1781.72 1110.59L1782.51 1112.69C1754.71 1316.3 1653.81 1497.46 1489.31 1622.36C1328.65 1744.35 1121.16 1804.38 920.438 1776.56C826.951 1763.6 732.6 1732.13 650.554 1685.22C649.18 1684.43 649.711 1684.67 647.96 1684.54C641.264 1680.93 634.143 1677.3 628.168 1672.58C614.774 1662.17 598.425 1653.54 584.042 1644.38C587.835 1642.33 592.294 1641.09 596.25 1639.28C605.763 1634.93 613.569 1629.57 621.793 1623.13C626.685 1626.36 633.431 1632.04 639.226 1633.29C654.549 1636.04 669.984 1647.04 683.87 1653.74C732.614 1677.27 784.057 1694.57 838.724 1694.53C881.325 1694.5 923.066 1678.17 963.528 1666.3C986.088 1659.68 1009.1 1654.12 1032.08 1649.14C1051.78 1644.86 1072.18 1642.47 1092.1 1639.29L1195.22 1622.85C1215.31 1619.77 1236.26 1618.58 1255.85 1613.06C1269.58 1609.19 1283.13 1603.41 1295.59 1596.47C1308.19 1589.46 1321.11 1579.38 1335.31 1576.15C1355.59 1571.53 1377.86 1572.95 1398.59 1571.47C1440.25 1568.51 1479.62 1560.07 1518.97 1546.28C1521.47 1545.11 1523.7 1543.04 1525.89 1541.36C1538.82 1524.04 1556.83 1510.38 1571.08 1494.08C1598.63 1462.56 1621.54 1428.23 1644.33 1393.22L1645.01 1392.19C1664.71 1362.28 1698.97 1298.24 1706.81 1262.86C1709.59 1258.9 1711.62 1252.45 1713.63 1247.93Z"/>
	<path fill="#A4BFC4" d="M1644.33 1393.22C1638.45 1437.61 1577.52 1503.83 1541.97 1530.8C1537.02 1534.55 1531.49 1538.68 1525.89 1541.36C1538.82 1524.04 1556.83 1510.38 1571.08 1494.08C1598.63 1462.56 1621.54 1428.23 1644.33 1393.22Z"/>
	<path fill="#A4BFC4" d="M639.226 1633.29C654.549 1636.04 669.984 1647.04 683.87 1653.74C732.614 1677.27 784.057 1694.57 838.724 1694.53C881.325 1694.5 923.066 1678.17 963.528 1666.3C986.088 1659.68 1009.1 1654.12 1032.08 1649.14C1051.78 1644.86 1072.18 1642.47 1092.1 1639.29L1195.22 1622.85C1215.31 1619.77 1236.26 1618.58 1255.85 1613.06C1269.58 1609.19 1283.13 1603.41 1295.59 1596.47C1308.19 1589.46 1321.11 1579.38 1335.31 1576.15C1355.59 1571.53 1377.86 1572.95 1398.59 1571.47C1440.25 1568.51 1479.62 1560.07 1518.97 1546.28C1493.87 1572.51 1462.59 1594.59 1432.39 1614.52C1313.56 1692.93 1175.74 1740.76 1032.85 1744C915.381 1746.66 800.644 1717.79 695.908 1665.46C677.807 1656.41 654.407 1646.83 639.226 1633.29Z"/>
	<path fill="#2D292D" d="M339.858 674.112C365.704 626.252 394.022 580.282 428.6 538.151C557.935 380.562 746.565 279.641 949.545 259.973C1099.74 245.419 1257.2 275.429 1389.5 348.729C1434.15 373.472 1475.19 403.083 1514.52 435.517C1540.45 455.774 1564.15 480.77 1586.15 505.154C1693.98 624.648 1762.38 775.266 1782 934.998C1784.46 954.995 1786.74 975.189 1787.45 995.336L1788.12 1000.28C1787.92 1031.54 1787.8 1063 1784.44 1094.12C1783.95 1098.81 1784.51 1108.7 1782.51 1112.69L1781.72 1110.59C1776.53 1115.25 1770.32 1135.44 1767.14 1142.76C1758.75 1162.09 1726.04 1235.48 1713.63 1247.93C1711.62 1252.45 1709.59 1258.9 1706.81 1262.86C1698.97 1298.24 1664.71 1362.28 1645.01 1392.19L1644.33 1393.22C1621.54 1428.23 1598.63 1462.56 1571.08 1494.08C1556.83 1510.38 1538.82 1524.04 1525.89 1541.36C1523.7 1543.04 1521.47 1545.11 1518.97 1546.28C1479.62 1560.07 1440.25 1568.51 1398.59 1571.47C1377.86 1572.95 1355.59 1571.53 1335.31 1576.15C1321.11 1579.38 1308.19 1589.46 1295.59 1596.47C1283.13 1603.41 1269.58 1609.19 1255.85 1613.06C1236.26 1618.58 1215.31 1619.77 1195.22 1622.85L1092.1 1639.29C1072.18 1642.47 1051.78 1644.86 1032.08 1649.14C1009.1 1654.12 986.088 1659.68 963.528 1666.3C923.066 1678.17 881.325 1694.5 838.724 1694.53C784.057 1694.57 732.614 1677.27 683.87 1653.74C669.984 1647.04 654.549 1636.04 639.226 1633.29C633.431 1632.04 626.685 1626.36 621.793 1623.13C606.817 1614.28 593.541 1600.92 578.085 1593.22C566.177 1601.36 555.044 1606.54 540.881 1609.53C534.322 1609.88 527.881 1610.07 521.363 1609.08C503.475 1606.38 492.406 1597.17 482.003 1583.2C465.47 1578.5 454.189 1573.23 441.824 1561.14C423.043 1565.05 401.455 1565.44 382.722 1561.31C360.028 1556.31 348.001 1543.51 335.964 1524.47C329.133 1522.58 295.739 1510.35 292.209 1511.89C289.982 1507.63 281.872 1506.23 277.639 1504.04C268.426 1499.26 264.98 1494.06 262.008 1484.53C262.932 1480.06 263.714 1475.83 266.36 1472C275.534 1458.71 295.777 1461.54 309.706 1458.56C310.038 1458.49 310.368 1458.41 310.699 1458.34C321.849 1438.5 336.66 1432.26 358.598 1431.89C363.6 1431.81 369.959 1432.46 374.717 1431.06L374.768 1428.75C375.085 1429.21 375.39 1429.69 375.721 1430.14C378.989 1434.62 389.447 1434.65 394.818 1435.36C400.367 1428.05 406.571 1421.78 413.338 1415.6C403.175 1401.35 394.136 1386.13 385.699 1370.81C316.633 1245.37 287.385 1112.08 297.878 969.363C299.616 945.727 302.268 907.04 308.64 884.997C301.935 878.325 292.959 870.329 290.543 860.877C288.717 853.73 290.959 848.925 294.544 842.832C290.349 838.004 285.284 833.999 280.437 829.851C280.011 833.493 278.824 836.986 277.784 840.491C278.002 837.774 279.289 834.085 278.694 831.455C275.733 818.362 238.402 790.775 240.3 765.206C240.864 757.614 244.256 754.306 249.836 749.653C246.77 743.526 243.345 737.795 240.874 731.363C231.684 707.443 222.514 662.113 233.22 637.69C235.942 635.312 239.145 633.48 242.198 631.55C266.559 631.778 298.058 652.569 319.668 664.124C326.055 667.538 332.905 672.095 339.858 674.112Z"/>
	<path fill="#F1EEEE" d="M854.745 1198.48C857.079 1198.64 856.849 1198.95 858.462 1200.47C859.342 1203.34 860.589 1206 859.562 1208.98C855.072 1212.42 838.729 1208.63 831.887 1209.26L830.783 1209.37L818.32 1211.48C830.157 1203.32 840.435 1199.8 854.745 1198.48Z"/>
	<path fill="#E7EEF3" d="M286.327 1483.63C305.154 1480.49 323.355 1477.13 342.125 1482.37C341.291 1483.07 340.6 1483.99 339.624 1484.46C336.779 1485.85 309.81 1487.23 301.622 1489.82C296.39 1488.09 291.38 1485.82 286.327 1483.63Z"/>
	<path fill="#E7EEF3" d="M1660.75 1028.51C1669.97 1023.31 1741.18 988.908 1746.3 989.497L1746.53 991.348C1736.72 999.252 1672.58 1030.25 1662.57 1028.82C1661.96 1028.73 1661.35 1028.62 1660.75 1028.51Z"/>
	<path fill="#464448" d="M1325.92 774.048L1333.93 778.311C1336.4 782.7 1337.35 786.897 1335.98 791.867C1335.07 795.166 1333.07 799.182 1329.72 800.56C1327.4 801.514 1325.24 800.932 1323.1 799.881C1319.23 797.989 1316.29 793.16 1315.36 789.088C1314.61 785.834 1314.98 782.4 1316.82 779.568C1319.13 776.002 1322.01 775.001 1325.92 774.048Z"/>
	<path fill="#F1EEEE" d="M1325.92 774.048L1333.93 778.311C1333.86 778.463 1333.79 778.612 1333.73 778.766C1333.13 780.246 1332.59 782.186 1331.65 783.471C1330.08 785.624 1328.28 785.89 1325.8 786.226C1323.14 784.918 1323.28 784.895 1322.13 782.136C1322.25 778.497 1323.73 776.849 1325.92 774.048Z"/>
	<path fill="#F1EEEE" d="M870.23 648.833C890.935 621.359 924.355 606.969 955.621 595.261C946.058 607.861 910.224 621.624 895.125 630.931C889.051 634.675 877.013 647.813 871.103 648.806C870.816 648.854 870.521 648.824 870.23 648.833Z"/>
	<path fill="#6B9298" d="M469.85 1272.44C489.286 1269.94 510.371 1273.03 530.035 1273.18C532.052 1277.35 534.586 1281.38 536.876 1285.41C515.951 1283.65 489.114 1280.91 469.85 1272.44Z"/>
	<path fill="#F1EEEE" d="M1387.29 920.038C1397.07 912.804 1407.3 905.751 1416.27 897.515C1422.83 891.492 1428.61 884.031 1435.61 878.634C1428.06 897.069 1415.07 914.622 1399.19 926.791C1395.35 924.354 1391.27 922.244 1387.29 920.038Z"/>
	<path fill="#F1EEEE" d="M887.961 1154.22C902.139 1153.29 932.609 1154.41 944.935 1162.18C946.759 1163.32 947.436 1164.96 947.46 1167.11C947.487 1169.53 946.606 1171.18 944.927 1172.79L943.353 1172.53L942.15 1170.33L943.768 1168.42L942.759 1166.6C920.573 1165.41 898.193 1158.02 875.963 1160.66L874.936 1160.79L874.157 1159.67C877.113 1156.12 883.581 1155.25 887.961 1154.22Z"/>
	<path fill="#F1EEEE" d="M1292.29 979.404C1303.02 981.375 1310.75 991.632 1316.68 1000.18C1328.71 1017.5 1336.14 1036.61 1341.08 1056.99C1337.53 1052.17 1331.81 1045.65 1329.99 1039.94C1327.26 1032.86 1324.18 1025.97 1319.72 1019.81C1312.54 1004.75 1301.21 993.191 1292.29 979.404Z"/>
	<path fill="#F1EEEE" d="M725.571 1041.57C739.556 1040.03 753.104 1037.71 767.25 1037.35C792.166 1036.71 843.699 1042.22 867.009 1053.73C848.291 1052.79 829.416 1048.27 810.872 1045.62C787.083 1042.21 762.737 1042.18 738.811 1044.22C743.458 1048.76 750.48 1053.91 750.786 1060.86L725.571 1041.57Z"/>
	<path fill="#F1EEEE" d="M1316.23 1033.95C1334.98 1074.77 1339.21 1113.49 1337.71 1157.91C1334.33 1159.49 1330.92 1161.34 1327.44 1162.67C1331.63 1129.04 1330.96 1097.79 1323.94 1064.55C1321.57 1054.59 1315.89 1044.35 1316.23 1033.95Z"/>
	<path fill="#9A6949" d="M967.815 1166.9C1003.66 1179.12 1025.37 1209.71 1041.23 1242.42C1041.72 1243.43 1041.94 1244.28 1042.06 1245.4C1039.98 1247.39 1037.51 1247.53 1034.79 1248.02C1026.5 1224.41 986.45 1183.22 967.815 1166.9Z"/>
	<path fill="#9A6949" d="M844.992 1220.82C852.172 1221.83 859.146 1223.33 866.207 1224.96C871.556 1238.54 877.694 1251.58 884.502 1264.49C874.993 1265.25 865.475 1265.94 855.988 1266.95L857.115 1265.93C858.799 1261.25 846.813 1228.26 844.992 1220.82Z"/>
	<path fill="#F1EEEE" d="M645.299 1028.81C676.366 1043.8 710.343 1053.28 743.231 1063.39C723.634 1066.98 678.835 1049.47 659.351 1042.39C665.706 1053.14 696.464 1100.78 694.631 1109.86C673.754 1084.72 658.757 1058.4 645.299 1028.81Z"/>
	<path fill="#F1EEEE" d="M328.861 1467.86C334.681 1459.72 340.472 1456.65 350.375 1454.87C372.488 1450.88 413.987 1458.03 432.48 1471.08C432.595 1471.16 432.7 1471.25 432.81 1471.34C427.072 1473.26 410.958 1469.54 403.929 1469.37C385.017 1468.92 344.879 1474.58 328.861 1467.86Z"/>
	<path fill="#F1EEEE" d="M1304.04 821.958C1319.22 821.895 1354.08 854.786 1373.25 863.211C1381.83 866.978 1391.4 869.522 1400.74 870.255C1407.82 870.81 1415.09 870.24 1421.87 872.573L1423.39 874.127C1422.64 876.726 1421.71 877.347 1419.82 879.217C1418.19 879.769 1418.74 879.658 1416.96 879.936C1392.64 883.72 1367.24 882.251 1349.68 862.985C1340.86 853.305 1333.2 842.645 1323.26 834.02C1317.54 829.046 1310.22 826.318 1304.04 821.958Z"/>
	<path fill="#F1EEEE" d="M902.262 577.103C958.576 553.94 1019.85 536.979 1080.9 550.579L1081.27 551.633C1030.56 549.177 1003.04 549.296 954.075 568.807C943.452 573.041 932.182 577.397 922.36 583.27C916.086 580.678 908.785 579.149 902.262 577.103Z"/>
	<path fill="#6B9298" d="M338.913 908.395C364.334 920.153 388.948 930.401 415.802 938.375C426.965 959.956 449.171 966.075 470.694 973.438C460.145 973.742 449.578 974.197 439.025 973.938C431.984 969.197 423.839 965.803 416.482 961.511C404.779 954.684 393.779 946.573 382.437 939.158C367.996 929.718 350.36 921.455 338.913 908.395Z"/>
	<path fill="#B7823C" d="M821.102 1269.14C817.453 1258.89 812.788 1247.1 813.058 1236.03C813.162 1231.79 814.361 1227.47 817.641 1224.58C824.459 1218.58 836.558 1220.39 844.992 1220.82C846.813 1228.26 858.799 1261.25 857.115 1265.93L855.988 1266.95L844.903 1267.63C838.126 1255.47 831.699 1243.35 825.256 1231.01C824.394 1246.32 826.791 1255.45 834.02 1268.76L821.102 1269.14Z"/>
	<path fill="#9A6949" d="M932.509 1180.21C939.97 1183.46 947.039 1187.12 954.158 1191.05C962.108 1212.48 970.08 1234.01 980.448 1254.43C973.18 1255.76 965.942 1256.53 958.586 1257.22C945.672 1232.68 938.38 1207.16 932.509 1180.21Z"/>
	<path fill="#F1EEEE" d="M647.807 1074.72C662.425 1091.87 678.977 1105.98 697.071 1119.25C683.65 1119.51 673.515 1117.05 661.543 1111.05C665.761 1125.23 669.963 1139.35 676.103 1152.85C688.818 1180.82 716.577 1224.64 741.838 1241.64L743 1243.73L742.245 1244.76C739.931 1244 738.225 1242.77 736.285 1241.35C728.126 1235.39 721.062 1228.21 713.988 1221.03C673.038 1179.5 656.718 1131.15 647.807 1074.72Z"/>
	<path fill="#B7823C" d="M1399.19 926.791C1389.44 936.905 1371.77 945.713 1359.12 951.604C1321.88 968.948 1273.88 977.56 1234.39 962.852C1210.76 954.05 1193.68 938.613 1183.09 915.819C1208.77 929.526 1224.38 948.569 1254.53 955.531C1302.42 966.589 1347.83 944.962 1387.29 920.038C1391.27 922.244 1395.35 924.354 1399.19 926.791Z"/>
	<path fill="#F1EEEE" d="M254.289 656.184L410.084 736.257C440.128 751.67 471.174 765.763 499.871 783.62C515.265 793.2 525.946 810.809 538.808 823.448C550.36 834.799 563.682 841.827 577.583 849.754C563.065 846.8 549.673 846.695 537.133 837.809C531.939 834.129 527.137 829.286 521.59 826.213C521.056 825.917 520.515 825.635 519.978 825.345C507.396 810.173 494.635 794.377 479.01 782.215C451.735 760.984 400.578 737.483 368.614 720.884C351.723 712.113 335.169 701.403 317.462 694.431C312.435 690.464 306.249 688.96 300.214 687.241C296.415 684.529 292.53 682.899 288.257 681.113C281.577 677.466 275.179 673.928 268.069 671.16C263.05 666.66 258.725 661.262 254.289 656.184Z"/>
	<path fill="#B7823C" d="M957.058 1163.99C960.684 1164.8 964.245 1165.88 967.815 1166.9C986.45 1183.22 1026.5 1224.41 1034.79 1248.02C1020.77 1248.66 1006.14 1251.71 992.105 1253.31C977.274 1223.85 966.924 1195.4 957.058 1163.99Z"/>
	<path fill="#6B9298" d="M568.457 985.574C596.223 995.871 634.703 1000.28 664.523 1006.82C676.002 1009.34 688.115 1014.52 699.378 1018.18C701.59 1018.9 710.73 1021.99 711.6 1023.72L704.878 1027.33C684.523 1020.6 665.01 1012.85 644.34 1006.81C640.465 1007.23 636.11 1007.81 632.574 1009.5C628.361 1011.52 625.187 1014.91 623.771 1019.38C619.988 1031.34 627.457 1044.92 632.552 1055.36C626.598 1066.38 626.686 1075.69 626.831 1087.89L568.457 985.574Z"/>
	<path fill="#F1EEEE" d="M397.84 996.292C418.043 995.47 438.284 996.003 458.499 995.907L547.756 994.981L642.727 1160.1C651.535 1175.56 665.482 1193.41 672.666 1208.53L672.035 1208.91C660.959 1194.76 650.965 1178.59 641.673 1163.19C637.677 1156.57 634.752 1149.37 629.932 1143.3L629.173 1143.3C630.015 1146.37 630.922 1148.77 632.421 1151.58C624.693 1148.89 591.069 1083.56 579.692 1070.51L578.157 1070.24C566.99 1061.96 544.231 1021.65 536.522 1008.04C506.091 1006.58 475.219 1005.34 444.765 1005.04C439.652 1004.5 435.076 1003.62 430.125 1002.29C421.847 999.355 402.11 1001.05 397.318 997.827L397.84 996.292Z"/>
	<path fill="#2D292D" d="M430.125 1002.29C466.874 1001.22 503.673 1002.05 540.433 1000.9C553.006 1024.38 566.851 1047.18 579.692 1070.51L578.157 1070.24C566.99 1061.96 544.231 1021.65 536.522 1008.04C506.091 1006.58 475.219 1005.34 444.765 1005.04C439.652 1004.5 435.076 1003.62 430.125 1002.29Z"/>
	<path fill="#8B9AAA" d="M1657.6 1133.31C1657.33 1140.03 1646.9 1147.6 1643.12 1153.17C1644.32 1154.14 1646.39 1155.06 1646.45 1156.72C1646.65 1162.56 1638.67 1170.97 1634.54 1174.8C1634.3 1175.02 1634.05 1175.22 1633.81 1175.43C1613.48 1190.34 1603.37 1218.54 1582.14 1232.7C1582.26 1232.35 1582.37 1232 1582.49 1231.66C1586.23 1221.15 1596.13 1215.18 1601.89 1205.85L1601.13 1205.65C1581.49 1221.31 1552.54 1262.85 1531.44 1272L1530.48 1272.65C1506.6 1288.98 1485.33 1310 1462.44 1327.78C1452.25 1335.69 1441.37 1344.73 1430.62 1351.77C1423.85 1356.2 1416.38 1359.89 1409.44 1364.1C1371.23 1387.25 1331.01 1410 1288.93 1425.38C1232.76 1445.92 1171.78 1456.69 1112.77 1465.33C1098.6 1467.41 1048.42 1470.33 1039.31 1476.04C1027.46 1474.15 1015.55 1472.54 1003.67 1470.79C1022.82 1469.1 1042.05 1468.29 1061.21 1466.6C1105.02 1462.75 1149.03 1456.97 1192.1 1448C1294.66 1426.64 1379.56 1382.61 1463.62 1320.98C1494.43 1298.39 1524.4 1274.59 1551.93 1248.06C1589.44 1211.93 1623.01 1172.15 1657.6 1133.31Z"/>
	<path fill="#7B8794" d="M1531.44 1272C1560.84 1242.88 1589.69 1213.77 1617.45 1183.05C1625.83 1173.78 1636.55 1163.77 1643.12 1153.17C1644.32 1154.14 1646.39 1155.06 1646.45 1156.72C1646.65 1162.56 1638.67 1170.97 1634.54 1174.8C1634.3 1175.02 1634.05 1175.22 1633.81 1175.43C1613.48 1190.34 1603.37 1218.54 1582.14 1232.7C1582.26 1232.35 1582.37 1232 1582.49 1231.66C1586.23 1221.15 1596.13 1215.18 1601.89 1205.85L1601.13 1205.65C1581.49 1221.31 1552.54 1262.85 1531.44 1272Z"/>
	<path fill="#9A6949" d="M1203.01 914.527C1217.58 892.792 1236.75 872.666 1256.72 855.964C1251.68 871.458 1245.17 888.827 1252.92 904.609C1258.16 915.256 1268.34 920.951 1279.26 924.309C1297.77 930 1317.18 929.734 1336.31 928.388C1342.39 927.961 1348.56 926.877 1354.63 926.847C1336.24 938.673 1312.18 945.482 1290.54 947.322C1255.68 950.287 1229.13 936.322 1203.01 914.527Z"/>
	<path fill="#6B9298" d="M1313.74 625.797C1324.73 633.692 1332.65 645.246 1340.04 656.416C1363.53 691.9 1380.64 731.008 1387.48 773.187C1390.74 793.234 1391.01 813.282 1391.08 833.537C1391.09 837.232 1390.33 842.295 1392.2 845.571L1394.46 847.076C1383.73 846.878 1361.48 830.106 1353.14 823.383C1353.83 821.609 1354.47 819.828 1355.05 818.015C1365.54 785.329 1351.52 712.576 1340.1 681.224C1332.98 661.687 1323.17 644.209 1313.74 625.797Z"/>
	<path fill="#A4BFC4" d="M536.709 1509.11C537.777 1509.08 538.397 1509.01 539.4 1509.11C549.418 1510.02 562.078 1541.17 567.015 1549.46C569.868 1554.25 573.307 1558.53 576.852 1562.82C566.458 1573.61 555.03 1583.84 539.893 1587C527.798 1589.53 517.263 1586.49 507.184 1579.8C504.27 1575.89 501.34 1571.25 497.649 1568.03C485.186 1557.17 469.89 1557.84 456.736 1544.8C474.785 1540.54 491.037 1533.71 507.253 1524.75C516.957 1519.38 526.425 1513.3 536.709 1509.11Z"/>
	<path fill="#F1EEEE" d="M544.836 813.488C575.04 827.672 604.266 844.06 633.938 859.327C663.234 874.4 692.913 888.224 723.362 900.82C756.365 914.473 789.874 927.826 823.736 939.168C886.818 960.297 978.884 981.82 1030.66 1021.67L1033.42 1024.75C1023.87 1021.75 1015.08 1015.61 1005.8 1011.69C980.189 1000.87 954.259 990.19 928.13 980.722C864.305 957.594 798.122 941.524 734.041 919.071C696.439 905.896 660.994 889.045 624.951 872.405C614.356 867.514 589.035 858.298 581.063 851.302L581.968 849.759C569.978 837.298 558.217 824.489 544.836 813.488Z"/>
	<path fill="#B7823C" d="M896.544 1263.29C887.601 1248.82 861.945 1195.96 866.686 1179.07C867.45 1176.35 869.017 1174.34 871.581 1173.12C885.31 1166.54 918.679 1175.47 932.509 1180.21C938.38 1207.16 945.672 1232.68 958.586 1257.22C938.663 1261.2 916.819 1261.77 896.544 1263.29Z"/>
	<path fill="#B7823C" d="M1010.62 990.728C1026.3 993.118 1042.49 993.944 1058.32 994.746C1118.91 997.817 1171.72 991.294 1229.46 972.945C1250.9 978.32 1270.08 981.83 1292.29 979.404C1301.21 993.191 1312.54 1004.75 1319.72 1019.81C1312.25 1016.73 1306.13 1011.2 1299.58 1006.58C1275.45 989.564 1241.55 985.293 1213.23 992.218C1200.85 995.246 1189.03 1000.24 1176.42 1002.4L1175.15 1002.62C1140.14 1017.46 1108.31 1021.41 1070.54 1016.52C1068.55 1017.3 1066.67 1017.46 1065.68 1019.41C1072.91 1023.21 1093.6 1024.33 1096.36 1027.76C1088.55 1027.95 1080.82 1027.25 1073.02 1027.22C1063.81 1027.18 1041.27 1031.55 1034.13 1025.51C1033.87 1025.28 1033.66 1025 1033.42 1024.75L1030.66 1021.67C1030.52 1019.65 1029.55 1018.03 1028.71 1016.2L1030.64 1016.14L1030.89 1014.4L1031.14 1016.17C1038.32 1017.33 1045.48 1018.45 1052.68 1019.43C1033.86 1010.67 1024.02 1007.76 1010.62 990.728Z"/>
	<path fill="#2D292D" d="M1037.18 1007.15C1069.76 1009.86 1103.49 1010.51 1136.01 1006.59C1145.36 1005.46 1167 999.189 1175.15 1002.62C1140.14 1017.46 1108.31 1021.41 1070.54 1016.52C1059.17 1014.13 1047.93 1011.63 1037.18 1007.15Z"/>
	<path fill="#F1EEEE" d="M1041.12 514.976C1066.56 515.281 1091.46 521.053 1114.33 532.34C1124.67 537.441 1134.84 543.515 1145.63 547.583C1158.15 552.303 1171.51 553.685 1184.4 557.081C1216.64 565.578 1247.84 584.963 1270.95 608.853C1315.74 655.154 1328.99 710.993 1335.98 772.762C1332.86 765.772 1330.22 757.017 1322.26 754.3C1321.84 754.156 1321.41 754.06 1320.98 753.94C1315.87 734.206 1313.02 714.471 1305.31 695.433C1274.06 618.333 1216.18 587.658 1143.92 556.989C1148.85 560.795 1156.58 565.611 1158.66 571.655C1124.84 545.049 1092.06 528.663 1049.26 521.862L1041.12 514.976Z"/>
	<path fill="#6B9298" d="M444.765 1005.04C475.219 1005.34 506.091 1006.58 536.522 1008.04C544.231 1021.65 566.99 1061.96 578.157 1070.24L579.692 1070.51C591.069 1083.56 624.693 1148.89 632.421 1151.58C639.048 1158.97 643.369 1172.15 648.14 1181.09C659.161 1201.74 691.549 1252.43 713.57 1259C712.421 1252.45 699.561 1247.32 698.933 1241.05C700.592 1241.65 730.278 1269.29 735.834 1273.96C672.204 1276.43 608.602 1278.02 544.92 1278.01L538.648 1267.03C586.318 1267.63 634.406 1266.68 682.041 1264.53C638.379 1176.27 576.49 1099.43 530.118 1012.91C504.674 1010.6 471.548 1015.47 447.667 1009.18L447.441 1008.58C447.887 1008.31 450.381 1006.81 450.807 1006.62C451.176 1006.47 451.59 1006.46 451.982 1006.37L444.765 1005.04Z"/>
	<path fill="#A4BFC4" d="M641.555 1407.02C653.088 1412.45 664.956 1417.9 676.859 1422.43C660.005 1427.3 621.471 1436.72 612.897 1453.42C612.727 1453.75 612.62 1454.12 612.482 1454.46C610.372 1456.08 609.494 1456.28 606.917 1456.55C601.276 1457.13 593.806 1461.34 588.378 1458.71C587.021 1454.77 590.787 1449.29 586.559 1447.39C576.032 1442.68 548.605 1453.02 536.852 1454.57C493.17 1460.35 509.646 1419.41 461.731 1441.17C452.374 1445.42 441.226 1453.36 437.46 1463.3C436.443 1465.98 435.751 1468.83 435.323 1471.67C432.34 1464.16 417.107 1456.37 410.034 1452.74C412.856 1448.47 415.469 1444.27 419.27 1440.78C438.53 1420.82 479.167 1415.02 505.667 1416.46C524.665 1417.49 543.196 1421.83 562.361 1420.68C584.402 1419.35 605.477 1411.65 627.32 1409.8C631.733 1408.17 636.909 1407.77 641.555 1407.02Z"/>
	<path fill="#F1EEEE" d="M419.27 1440.78C438.53 1420.82 479.167 1415.02 505.667 1416.46C524.665 1417.49 543.196 1421.83 562.361 1420.68C584.402 1419.35 605.477 1411.65 627.32 1409.8C613.433 1421.09 548.362 1430.39 530.793 1428.65C520.163 1427.6 509.819 1421.15 499.098 1422.11C489.948 1422.93 480.243 1429.02 471.902 1432.71C458.228 1438.75 433.824 1446.85 419.27 1440.78Z"/>
	<path fill="#A4BFC4" d="M1561.87 1350.12C1575.61 1353.83 1589.36 1357.43 1603.18 1360.82C1596.64 1378.71 1586.1 1397.18 1567.07 1404.07C1560.69 1406.38 1553.28 1407.54 1547.73 1411.6C1536.47 1419.85 1528.86 1434 1519.63 1444.42C1492.08 1475.54 1463.46 1484.89 1422.55 1487.23C1408.2 1489.02 1393.35 1489.11 1378.91 1489.74C1392.5 1485.99 1406.63 1482.57 1419.04 1475.69C1432.56 1468.19 1444.61 1456.85 1456.51 1446.99C1493.53 1416.34 1528 1384.18 1561.87 1350.12Z"/>
	<path fill="#2D292D" d="M1595.55 1365.9L1596.1 1366.53C1596.5 1368.52 1596.21 1370.32 1595.65 1372.26C1591.82 1385.57 1577.72 1394.88 1566.2 1400.93L1565.63 1400.25C1567.1 1393.24 1582.79 1382.33 1587.96 1376.5C1590.89 1373.2 1593.26 1369.65 1595.55 1365.9Z"/>
	<path fill="#2D292D" d="M1531.82 1418.95C1531.71 1420.04 1531.72 1420.43 1531.3 1421.59C1522.86 1444.72 1492.78 1466.02 1470.76 1474.22L1470.62 1472.78C1477.46 1464.42 1488.9 1458.01 1497.39 1451.14C1509.72 1441.14 1520.98 1430.56 1531.82 1418.95Z"/>
	<path fill="#F1EEEE" d="M1660.75 1028.51C1661.35 1028.62 1661.96 1028.73 1662.57 1028.82C1672.58 1030.25 1736.72 999.252 1746.53 991.348C1745.13 996.441 1743.25 1000.47 1740.7 1005.05C1726.74 1009.89 1713.28 1017.13 1699.65 1022.92C1679.01 1031.68 1656.83 1038.38 1637.81 1050.44C1632.59 1052.61 1626.47 1054.58 1621.66 1057.47C1588.52 1070.06 1558.75 1084.81 1528.03 1102.45C1519.62 1105.01 1511.66 1108.57 1504.2 1113.24C1484.21 1119.21 1465.28 1128.74 1445.86 1136.29C1427.97 1143.26 1408.58 1148.46 1391.67 1157.56C1321.19 1183.75 1254.09 1214.67 1181.57 1235.83C1132.6 1250.11 1082.45 1260.65 1031.88 1267.35C996.491 1272.05 960.729 1274.7 925.198 1278.15C843.033 1286.14 761.698 1292.15 679.144 1294.18C667.388 1290.68 651.269 1293.28 639.016 1293.71C622.459 1294.3 561.608 1295.32 549.863 1290.39C551.574 1289.48 553.107 1289.03 555.039 1288.9C576.515 1287.55 598.483 1288.4 620.018 1288.19C653.493 1287.86 687.019 1286.85 720.456 1285.22C797.655 1281.47 874.441 1276.13 951.323 1268.14C997.197 1263.37 1042.99 1258.19 1088.42 1250.08C1194.79 1231.08 1293.45 1188.66 1392.37 1146.76C1482.44 1108.61 1571.66 1068.91 1660.75 1028.51Z"/>
	<path fill="#B7823C" d="M1256.72 855.964C1270.41 842.122 1287.15 831.47 1304.04 821.958C1310.22 826.318 1317.54 829.046 1323.26 834.02C1333.2 842.645 1340.86 853.305 1349.68 862.985C1367.24 882.251 1392.64 883.72 1416.96 879.936C1418.74 879.658 1418.19 879.769 1419.82 879.217C1408.73 895.313 1373 919.302 1354.63 926.847C1348.56 926.877 1342.39 927.961 1336.31 928.388C1317.18 929.734 1297.77 930 1279.26 924.309C1268.34 920.951 1258.16 915.256 1252.92 904.609C1245.17 888.827 1251.68 871.458 1256.72 855.964Z"/>
	<path fill="#6B9298" d="M1531.44 1272C1552.54 1262.85 1581.49 1221.31 1601.13 1205.65L1601.89 1205.85C1596.13 1215.18 1586.23 1221.15 1582.49 1231.66C1582.37 1232 1582.26 1232.35 1582.14 1232.7C1549.49 1268.6 1513.72 1300.55 1477.35 1332.57C1437.24 1367.89 1397.33 1405.83 1348.46 1428.82C1304.74 1449.38 1255.89 1460.1 1209.05 1471.05L1154.78 1483.45C1142.76 1486.13 1130.27 1489.69 1117.94 1490.24C1093.7 1491.32 1063.6 1480.38 1039.31 1476.04C1048.42 1470.33 1098.6 1467.41 1112.77 1465.33C1171.78 1456.69 1232.76 1445.92 1288.93 1425.38C1331.01 1410 1371.23 1387.25 1409.44 1364.1C1416.38 1359.89 1423.85 1356.2 1430.62 1351.77C1441.37 1344.73 1452.25 1335.69 1462.44 1327.78C1485.33 1310 1506.6 1288.98 1530.48 1272.65L1531.44 1272Z"/>
	<path fill="#6B9298" d="M1453.6 894.091C1467.3 899.17 1482.66 910.921 1488.81 924.502C1492.89 933.495 1492.4 943.165 1488.88 952.254C1477.16 982.518 1415.9 1027.33 1384.86 1039.92C1384.36 1040.13 1383.84 1040.32 1383.33 1040.53C1395.21 1064.62 1402.63 1091.79 1402.04 1118.83C1390.48 1126.26 1374 1131.14 1361.1 1136.16C1360.98 1120.97 1359.48 1105.25 1356.63 1090.32C1358.98 1085.88 1360.82 1080.91 1361.97 1076.01C1369.54 1043.71 1349.73 1010.84 1333.07 984.869C1337.07 983.657 1341.07 982.419 1345.02 981.051C1390.14 965.43 1432.28 938.058 1453.6 894.091Z"/>
	<path fill="#6B9298" d="M1657.6 1133.31C1669.67 1117.89 1682.73 1103.22 1694.54 1087.61C1707.93 1069.92 1720.1 1051.08 1733.91 1033.74C1681.07 1177.94 1586.26 1306.17 1471.49 1407.13C1451.56 1424.66 1427.42 1448.84 1403.42 1459.82C1379.46 1470.79 1352.23 1476.6 1326.72 1482.85C1298.32 1489.8 1268.53 1498.39 1239.54 1501.96C1202.65 1506.5 1163.41 1501.18 1127.03 1495.13C1176.66 1485.05 1225.89 1474.09 1274.67 1460.38C1302.61 1452.53 1330.68 1444.49 1357.11 1432.35C1398.91 1413.16 1434.67 1378.91 1468.87 1348.85C1512.66 1310.36 1554.82 1271.85 1593.33 1227.91C1606.93 1212.38 1621.1 1196 1632.15 1178.52C1632.79 1177.51 1633.29 1176.5 1633.81 1175.43C1634.05 1175.22 1634.3 1175.02 1634.54 1174.8C1638.67 1170.97 1646.65 1162.56 1646.45 1156.72C1646.39 1155.06 1644.32 1154.14 1643.12 1153.17C1646.9 1147.6 1657.33 1140.03 1657.6 1133.31Z"/>
	<path fill="#B7823C" d="M252.063 671.358C261.218 675.971 296.74 722.687 308.592 734.676C351.927 778.514 398.689 817.055 450.844 850.02C489.661 874.555 532.883 901.295 574.292 920.699C597.678 931.657 622.166 940.307 646.173 949.793C673.496 960.588 700.496 972.124 727.549 983.574C744.768 990.863 761.988 998.215 779.387 1005.06C792.874 1010.37 807.347 1015.04 820.04 1022.07C820.411 1022.27 820.776 1022.49 821.144 1022.7C788.714 1018.49 757.674 1012.92 726.227 1003.77C710.953 999.319 696.406 992.965 681.233 988.329C668.859 984.548 656.022 982.476 643.309 980.189C653.65 977.355 661.543 974.567 670.401 968.512C645.334 971.151 621.299 973.602 596.095 970.413C592.427 969.596 588.861 968.377 585.282 967.24C594.197 961.29 600.254 955.429 606.819 946.961C602.409 949.067 598.157 951.22 593.439 952.577C560.002 962.2 507.284 959.407 473.985 949.976C462.264 946.657 451.553 941.801 440.904 935.939C474.01 936.712 504.616 942.955 536.482 930.137C530.636 930.336 524.779 930.533 518.929 930.533C448.831 930.537 365.707 910.339 315.235 859.748C336.791 865.01 358.744 868.297 380.643 871.763C333.812 840.053 293.745 826.828 264.882 772.351C289.553 785.528 313.849 795.83 340.889 803.229C324.799 792.098 308.56 780.734 294.196 767.407C265.097 740.409 253.546 710.541 252.063 671.358Z"/>
	<path fill="#B7823C" d="M738.811 1044.22C762.737 1042.18 787.083 1042.21 810.872 1045.62C829.416 1048.27 848.291 1052.79 867.009 1053.73C866.286 1060.6 857.764 1071.25 854.488 1077.75C846.3 1093.99 841.789 1109.61 840.664 1127.71C860.1 1107.99 872.798 1085.15 887.418 1061.99C901.127 1062.18 914.816 1062.59 928.517 1063.08C907.415 1084.54 883.682 1106.9 873.024 1135.66L863.96 1139.64L854.264 1149.02C849.402 1158.52 846.296 1166.67 844.528 1177.2C829.692 1179.84 815.206 1184.27 806.012 1197.27C797.89 1208.75 797.105 1222.95 799.693 1236.34C801.871 1247.6 805.717 1259.28 810.094 1269.9C800.491 1270.92 790.936 1271.58 781.296 1272.09C763.966 1257.31 752.934 1250.18 739.403 1230.67C738.619 1234.3 740.583 1238.25 741.838 1241.64C716.577 1224.64 688.818 1180.82 676.103 1152.85C669.963 1139.35 665.761 1125.23 661.543 1111.05C673.515 1117.05 683.65 1119.51 697.071 1119.25L705.553 1123.3C702.07 1118.69 698.314 1114.3 694.631 1109.86C696.464 1100.78 665.706 1053.14 659.351 1042.39C678.835 1049.47 723.634 1066.98 743.231 1063.39C746.626 1064.39 749.831 1065.49 753.391 1065.56L753.603 1064.18L750.786 1060.86C750.48 1053.91 743.458 1048.76 738.811 1044.22Z"/>
	<path fill="#ECC348" d="M854.264 1149.02L852.774 1147.89L852.574 1145.75C857.216 1132.74 871.145 1113.1 881.364 1103.79C883.943 1101.44 887.472 1099.79 890.549 1098.18C882.523 1112.42 872.016 1125.25 863.96 1139.64L854.264 1149.02Z"/>
	<path fill="#A4BFC4" d="M538.648 1267.03C527.266 1243.63 513.133 1221.2 500.638 1198.32L403.503 1020.48C401.012 1015.82 392.542 1002.15 394.02 997.269L397.84 996.292L397.318 997.827C402.11 1001.05 421.847 999.355 430.125 1002.29C435.076 1003.62 439.652 1004.5 444.765 1005.04L451.982 1006.37C451.59 1006.46 451.176 1006.47 450.807 1006.62C450.381 1006.81 447.887 1008.31 447.441 1008.58L447.667 1009.18C471.548 1015.47 504.674 1010.6 530.118 1012.91C576.49 1099.43 638.379 1176.27 682.041 1264.53C634.406 1266.68 586.318 1267.63 538.648 1267.03Z"/>
	<path fill="#2D292D" d="M531.713 1216.73C532.958 1217.5 533.084 1217.51 534.189 1218.45C541.34 1224.53 549.202 1246.34 549.918 1255.09C541.374 1245.55 531.966 1229.69 531.713 1216.73Z"/>
	<path fill="#A4BFC4" d="M308.64 884.997C317.923 892.437 330.874 900.193 338.913 908.395C350.36 921.455 367.996 929.718 382.437 939.158C393.779 946.573 404.779 954.684 416.482 961.511C423.839 965.803 431.984 969.197 439.025 973.938C423.079 973.811 386.051 969.886 373.654 981.734C370.464 984.783 369.071 988.863 369.065 993.218C369.056 999.321 371.516 1005.52 374.02 1011.01C383.743 1032.32 397.074 1052.5 408.024 1073.27C439.309 1132.63 471.082 1191.65 503.92 1250.16C479.385 1249.73 454.925 1249.4 430.39 1250.02C425.653 1253.42 420.454 1257.55 419.428 1263.69C418.835 1267.22 420.087 1270.48 422.172 1273.3C431.564 1286 453.803 1291.55 468.239 1295.41C488.912 1299.89 509.394 1304.61 530.358 1307.6C540.452 1328.65 551.785 1346.14 565.716 1364.87C575.212 1374.87 585.023 1384.14 595.87 1392.69C580.918 1395.72 566.488 1398.26 551.155 1398.24C536.152 1398.22 521.235 1395.22 506.281 1394.25C475.811 1392.27 439.865 1400.51 413.338 1415.6C403.175 1401.35 394.136 1386.13 385.699 1370.81C316.633 1245.37 287.385 1112.08 297.878 969.363C299.616 945.727 302.268 907.04 308.64 884.997Z"/>
	<path fill="#6B9298" d="M468.239 1295.41C488.912 1299.89 509.394 1304.61 530.358 1307.6C540.452 1328.65 551.785 1346.14 565.716 1364.87C557.405 1361.8 548.485 1360.06 540.01 1357.41C520.68 1351.36 475.382 1335.53 465.959 1316.19C461.853 1307.77 465.696 1304.47 467.971 1296.53C468.076 1296.16 468.149 1295.78 468.239 1295.41Z"/>
	<path fill="#A4BFC4" d="M675.789 1435.5C684.57 1434.33 692.89 1433.25 701.737 1434.13C715.962 1435.54 729.848 1441.04 743.504 1445.04C758.567 1449.46 773.934 1453.19 789.396 1455.92C825.505 1462.3 862.64 1466.72 899.217 1469.08C916.921 1470.22 934.881 1468.97 952.476 1471.33C961.666 1472.57 979.491 1482.78 987.336 1479.66C997.399 1475.67 1121.15 1504.5 1141.9 1507.72C1170.48 1512.15 1199.08 1513.25 1227.95 1512.97C1193.53 1532.22 1113.5 1532.85 1072.33 1537.86C1041.28 1541.63 1010.46 1546.89 979.744 1552.81C944.227 1559.65 908.852 1567.56 873.863 1576.73C839.228 1585.8 804.728 1596.8 768.99 1600.64C733.623 1604.44 697.295 1602.31 663.025 1592.63C640.046 1586.14 614.137 1580.07 595.31 1564.58C587.642 1558.28 581.21 1550.67 575.707 1542.43C569.095 1532.54 556.033 1501.96 545 1498.15C537.143 1495.44 523.309 1503.14 516.51 1506.96C507.079 1512.26 497.927 1518.26 488.132 1522.88C456.745 1537.67 416.58 1547.54 382.242 1538.42C363.3 1533.38 363.161 1517.08 349.338 1507.29C335.553 1497.53 316.74 1496.88 301.622 1489.82C309.81 1487.23 336.779 1485.85 339.624 1484.46C340.6 1483.99 341.291 1483.07 342.125 1482.37L346.08 1482.63C341.75 1477.91 336.131 1476.71 331.29 1472.99C329.055 1471.27 329.285 1470.53 328.861 1467.86C344.879 1474.58 385.017 1468.92 403.929 1469.37C410.958 1469.54 427.072 1473.26 432.81 1471.34L434.571 1472.48L435.323 1471.67C435.751 1468.83 436.443 1465.98 437.46 1463.3C441.226 1453.36 452.374 1445.42 461.731 1441.17C509.646 1419.41 493.17 1460.35 536.852 1454.57C548.605 1453.02 576.032 1442.68 586.559 1447.39C590.787 1449.29 587.021 1454.77 588.378 1458.71C593.806 1461.34 601.276 1457.13 606.917 1456.55C609.494 1456.28 610.372 1456.08 612.482 1454.46C633.22 1445.74 653.926 1440.39 675.789 1435.5Z"/>
	<path fill="#E7EEF3" d="M435.323 1471.67C435.751 1468.83 436.443 1465.98 437.46 1463.3C441.226 1453.36 452.374 1445.42 461.731 1441.17C509.646 1419.41 493.17 1460.35 536.852 1454.57C548.605 1453.02 576.032 1442.68 586.559 1447.39C590.787 1449.29 587.021 1454.77 588.378 1458.71C593.806 1461.34 601.276 1457.13 606.917 1456.55C609.494 1456.28 610.372 1456.08 612.482 1454.46C633.22 1445.74 653.926 1440.39 675.789 1435.5C686.392 1445.98 697.219 1457.61 710.217 1465.13C736.655 1480.43 766.224 1483.96 795.448 1490.06C841.834 1499.74 908.221 1511.29 950.517 1529.97L948.943 1530.88L951.386 1530.26L952.356 1531.01C941.637 1536.87 930.446 1539.41 918.953 1543.4C844.356 1569.27 745.751 1578.9 669.387 1556.29C647.973 1549.94 624.719 1539.36 606.422 1526.46C577.806 1506.28 572.062 1484.96 531.18 1493C525.714 1494.07 519.162 1494.49 513.988 1496.33L523.541 1490.71C506.823 1493.79 491.981 1500.93 476.128 1506.73C443.306 1518.73 412.063 1515.69 383.11 1495.72C376.302 1491.02 363.025 1478.09 356.141 1476.16C372.181 1497.86 394.77 1512.92 421.75 1517.08C433.397 1518.88 457.537 1519.18 468.074 1514.32C479.353 1509.11 490.816 1507.51 501.766 1501.02C503.587 1499.94 502.842 1500.32 505.107 1499.67L505.947 1501.9L505.899 1500.94C500.24 1504.01 498.643 1508.25 495.903 1513.81C467.673 1524.47 431.39 1531.05 402.812 1518.16C392.351 1513.44 382.732 1507.12 373.982 1499.72C370.161 1496.49 366.29 1492.45 362.126 1489.72C356.995 1486.34 350.793 1486.97 346.08 1482.63C341.75 1477.91 336.131 1476.71 331.29 1472.99C329.055 1471.27 329.285 1470.53 328.861 1467.86C344.879 1474.58 385.017 1468.92 403.929 1469.37C410.958 1469.54 427.072 1473.26 432.81 1471.34L434.571 1472.48L435.323 1471.67Z"/>
	<path fill="#A4BFC4" d="M674.999 1521.83C688.005 1525.64 700.063 1533.45 712.832 1538.25C751.273 1552.68 788.995 1550.4 828.838 1545.24C839.978 1543.8 888.913 1535.93 895.772 1541.05L894.604 1542.25C852.682 1553.05 810.25 1558.36 766.934 1557.09C733.414 1556.11 698.738 1546.89 674.999 1521.83Z"/>
	<path fill="#6B9298" d="M1750.02 1054.61C1755.24 1033.88 1763.84 1013.55 1770.69 993.293C1774.06 996.081 1778.94 998.754 1783.48 998.15C1785.5 997.881 1786.25 996.86 1787.45 995.336L1788.12 1000.28C1787.92 1031.54 1787.8 1063 1784.44 1094.12C1783.95 1098.81 1784.51 1108.7 1782.51 1112.69L1781.72 1110.59C1776.53 1115.25 1770.32 1135.44 1767.14 1142.76C1758.75 1162.09 1726.04 1235.48 1713.63 1247.93C1711.62 1252.45 1709.59 1258.9 1706.81 1262.86C1698.97 1298.24 1664.71 1362.28 1645.01 1392.19L1644.33 1393.22C1621.54 1428.23 1598.63 1462.56 1571.08 1494.08C1556.83 1510.38 1538.82 1524.04 1525.89 1541.36C1523.7 1543.04 1521.47 1545.11 1518.97 1546.28C1479.62 1560.07 1440.25 1568.51 1398.59 1571.47C1377.86 1572.95 1355.59 1571.53 1335.31 1576.15C1321.11 1579.38 1308.19 1589.46 1295.59 1596.47C1283.13 1603.41 1269.58 1609.19 1255.85 1613.06C1236.26 1618.58 1215.31 1619.77 1195.22 1622.85L1092.1 1639.29C1072.18 1642.47 1051.78 1644.86 1032.08 1649.14C1009.1 1654.12 986.088 1659.68 963.528 1666.3C923.066 1678.17 881.325 1694.5 838.724 1694.53C784.057 1694.57 732.614 1677.27 683.87 1653.74C669.984 1647.04 654.549 1636.04 639.226 1633.29C633.431 1632.04 626.685 1626.36 621.793 1623.13C606.817 1614.28 593.541 1600.92 578.085 1593.22L585.743 1587.01C603.592 1597.86 624.615 1605.08 644.615 1611C664.415 1616.86 685.214 1622.18 705.756 1624.4C767.246 1631.03 829.198 1611.19 888.017 1596.18C929.531 1585.59 971.496 1576.34 1013.73 1569.07C1039.59 1564.62 1065.68 1560.36 1091.82 1557.88C1129.84 1554.29 1167.82 1553.18 1205.17 1544.45C1216.51 1541.8 1228.11 1538.54 1238.76 1533.76C1254.95 1526.49 1263.25 1519.65 1281.43 1516.4C1330.77 1507.58 1381.13 1513.97 1430.99 1508.77C1499.25 1501.65 1519.42 1481.36 1561.12 1429.9C1568.06 1427.88 1574.69 1425.25 1581.03 1421.77C1600.05 1411.34 1617.94 1393.31 1623.83 1371.92C1625.75 1364.96 1625.69 1357.87 1621.96 1351.51C1613.59 1337.26 1594.05 1334.71 1579.39 1331.26C1597.54 1312.08 1613.61 1290.77 1629.16 1269.48C1678.37 1202.11 1716.69 1130.91 1750.02 1054.61Z"/>
	<path fill="#A4BFC4" d="M1628.78 1373.45C1644.03 1352.49 1660.28 1332.31 1674.92 1310.88C1685.72 1295.07 1693.94 1277.18 1706.81 1262.86C1698.97 1298.24 1664.71 1362.28 1645.01 1392.19C1641.31 1382.74 1637.25 1378.65 1628.78 1373.45Z"/>
	<path fill="#A4BFC4" d="M1750.02 1054.61C1755.24 1033.88 1763.84 1013.55 1770.69 993.293C1774.06 996.081 1778.94 998.754 1783.48 998.15C1785.5 997.881 1786.25 996.86 1787.45 995.336L1788.12 1000.28C1787.92 1031.54 1787.8 1063 1784.44 1094.12C1783.95 1098.81 1784.51 1108.7 1782.51 1112.69L1781.72 1110.59C1776.53 1115.25 1770.32 1135.44 1767.14 1142.76C1758.75 1162.09 1726.04 1235.48 1713.63 1247.93C1715.7 1232.59 1723.07 1217.05 1727.3 1202.11C1736.08 1171.08 1754.32 1084.1 1750.02 1054.61Z"/>
	<path fill="#ECC348" d="M268.069 671.16C275.179 673.928 281.577 677.466 288.257 681.113C292.53 682.899 296.415 684.529 300.214 687.241C306.249 688.96 312.435 690.464 317.462 694.431C335.169 701.403 351.723 712.113 368.614 720.884C400.578 737.483 451.735 760.984 479.01 782.215C494.635 794.377 507.396 810.173 519.978 825.345C520.515 825.635 521.056 825.917 521.59 826.213C527.137 829.286 531.939 834.129 537.133 837.809C549.673 846.695 563.065 846.8 577.583 849.754L581.968 849.759L581.063 851.302C589.035 858.298 614.356 867.514 624.951 872.405C660.994 889.045 696.439 905.896 734.041 919.071C798.122 941.524 864.305 957.594 928.13 980.722C954.259 990.19 980.189 1000.87 1005.8 1011.69C1015.08 1015.61 1023.87 1021.75 1033.42 1024.75C1033.66 1025 1033.87 1025.28 1034.13 1025.51C1041.27 1031.55 1063.81 1027.18 1073.02 1027.22C1080.82 1027.25 1088.55 1027.95 1096.36 1027.76C1093.6 1024.33 1072.91 1023.21 1065.68 1019.41C1066.67 1017.46 1068.55 1017.3 1070.54 1016.52C1108.31 1021.41 1140.14 1017.46 1175.15 1002.62L1176.42 1002.4C1189.03 1000.24 1200.85 995.246 1213.23 992.218C1241.55 985.293 1275.45 989.564 1299.58 1006.58C1306.13 1011.2 1312.25 1016.73 1319.72 1019.81C1324.18 1025.97 1327.26 1032.86 1329.99 1039.94C1325.08 1036.48 1320.33 1031.13 1314.91 1028.74L1314.29 1030L1316.23 1033.95C1315.89 1044.35 1321.57 1054.59 1323.94 1064.55C1330.96 1097.79 1331.63 1129.04 1327.44 1162.67C1272.8 1185.76 1216.64 1207.67 1159.42 1223.41C1142.85 1227.97 1126.14 1232 1109.32 1235.51C1097.93 1237.9 1086.06 1239.69 1074.86 1242.8C1071.77 1232.65 1068.38 1222.79 1064.52 1212.91C1058.1 1198.97 1049.14 1186.1 1039.57 1174.16C1024.61 1155.52 1002.21 1130.86 976.665 1128.56C964.755 1127.5 955.469 1132.06 946.572 1139.47C922.415 1131.55 897.77 1129.93 873.024 1135.66C883.682 1106.9 907.415 1084.54 928.517 1063.08C947.171 1062.58 964.15 1060.82 981.704 1054.22C961.759 1054.03 941.896 1053.74 922.003 1052.17C944.252 1048.81 962.819 1045.27 982.473 1033.7C955.324 1035.05 930.414 1042.56 902.966 1037.96C847.662 1028.69 787.619 997.349 735.772 975.555C704.36 962.35 673.05 948.74 641.423 936.067C624.632 929.339 607.407 924.342 590.93 916.766C563.953 904.361 537.969 889.837 512.19 875.14C433.362 830.199 375.009 788.3 311.935 721.956C296.753 705.987 280.814 689.167 268.069 671.16Z"/>
	<path fill="#2D292D" d="M613.151 915.113C627.39 915.529 694.397 939.953 705.06 947.602C674.277 942.261 645.617 932.455 617.214 919.495C614.593 918.299 614.218 917.798 613.151 915.113Z"/>
	<path fill="#2D292D" d="M730.507 964.276C750.749 964.918 803.905 990.588 824.638 998.907C840.391 1005.23 856.929 1010.18 872.138 1017.73C871.017 1017.74 869.893 1017.77 868.774 1017.69C834.75 1015.48 782.393 990.57 751.503 975.604C745.42 972.658 734.887 969.154 730.507 964.276Z"/>
	<path fill="#2D292D" d="M317.462 694.431C335.169 701.403 351.723 712.113 368.614 720.884C400.578 737.483 451.735 760.984 479.01 782.215C494.635 794.377 507.396 810.173 519.978 825.345C522.392 829.273 524.684 833.28 527.014 837.257C507.679 817.555 488.569 796.417 465.42 781.149C450.404 771.246 434.112 763.065 418.398 754.336C397.994 743.002 377.825 731.256 357.557 719.681C344.95 712.482 327.319 705.043 317.462 694.431Z"/>
	<path fill="#B7823C" d="M288.257 681.113C292.53 682.899 296.415 684.529 300.214 687.241C310.689 700.444 323.553 712.711 335.076 725.077C349.74 740.815 364.094 757.555 379.739 772.271C393.265 784.993 410.964 795.41 421.926 810.3C419.492 809.49 417.02 808.677 414.678 807.625C387.472 795.413 298.42 708.243 288.257 681.113Z"/>
	<path fill="#B7823C" d="M1280.92 1168.61C1299.39 1145 1312.67 1120.22 1319.6 1090.9C1321.57 1082.56 1320.72 1073.36 1323.63 1065.35C1323.72 1065.08 1323.83 1064.82 1323.94 1064.55C1330.96 1097.79 1331.63 1129.04 1327.44 1162.67C1272.8 1185.76 1216.64 1207.67 1159.42 1223.41C1142.85 1227.97 1126.14 1232 1109.32 1235.51C1097.93 1237.9 1086.06 1239.69 1074.86 1242.8C1071.77 1232.65 1068.38 1222.79 1064.52 1212.91C1086.07 1208.63 1103.49 1198.65 1122.07 1187.48C1112.86 1199.41 1100.58 1207.64 1088.31 1216.08C1120 1210.47 1126.47 1195.98 1144.33 1172.46C1141.25 1185.12 1135.31 1196.75 1128.74 1207.91C1146.62 1202.6 1163.83 1196.34 1180.01 1186.92C1211.72 1168.47 1240.22 1144.89 1249.77 1108.23C1250.15 1128.01 1248.68 1146.61 1244.74 1165.99C1270.04 1135.05 1283.02 1109.28 1294.54 1071.1C1296.5 1103.68 1288.42 1137.09 1280.92 1168.61Z"/>
	<path fill="#ECC348" d="M1049.26 521.862C1092.06 528.663 1124.84 545.049 1158.66 571.655C1156.58 565.611 1148.85 560.795 1143.92 556.989C1216.18 587.658 1274.06 618.333 1305.31 695.433C1313.02 714.471 1315.87 734.206 1320.98 753.94C1307.18 771.157 1300.4 789.566 1301.04 811.756C1256.44 836.42 1223.24 869.491 1192.69 909.734C1194.92 902.12 1196.41 894.759 1197.61 886.928C1191 894.498 1183.58 904.372 1173.85 907.999C1169.97 909.442 1164.42 909.048 1161.36 911.59C1162.43 913.678 1161.77 912.945 1163.04 914.031C1166.32 914.603 1169.33 915.64 1172.47 916.723C1182.89 943.119 1194.29 951.549 1217.3 966.676C1156.6 984.269 1096.2 991.674 1033.5 980.358C985.214 971.642 918.857 951.827 881.607 919.514C871.337 910.606 863.617 899.805 855.927 888.699C863.717 909.08 877.068 920.698 890.565 936.988L887.526 935.114C863.628 920.528 846.957 893.974 840.603 867.112C829.318 819.405 836.038 746.824 856.067 702.308C864.177 684.281 875.278 668.739 885.624 652.068C873.308 658.799 861.854 667.056 849.825 674.296C856.319 665.215 862.695 657.062 870.23 648.833C870.521 648.824 870.816 648.854 871.103 648.806C877.013 647.813 889.051 634.675 895.125 630.931C910.224 621.624 946.058 607.861 955.621 595.261L957.588 594.309L957.402 592.483C947.652 586.897 933.36 585.501 922.36 583.27C932.182 577.397 943.452 573.041 954.075 568.807C1003.04 549.296 1030.56 549.177 1081.27 551.633L1080.9 550.579C1074.02 539.358 1059.28 530.376 1049.26 521.862Z"/>
	<path fill="#2D292D" d="M1103.4 746.105C1113.86 745.49 1121.97 746.911 1131.74 750.507C1119.09 752.168 1108.53 753.906 1097.34 760.449C1091.48 765.242 1086.2 770.861 1080.82 776.189C1086.17 763.739 1090.77 752.853 1103.4 746.105Z"/>
	<path fill="#B7823C" d="M1049.26 521.862C1092.06 528.663 1124.84 545.049 1158.66 571.655C1163.83 575.256 1175.35 591.367 1180.1 597.083C1169.19 590.159 1159.08 582.058 1148.2 575.097C1133.7 565.818 1098.44 547.789 1081.27 551.633L1080.9 550.579C1074.02 539.358 1059.28 530.376 1049.26 521.862Z"/>
	<path fill="#B7823C" d="M1185.35 851.453C1189.23 854.114 1192.05 856.316 1192.84 861.258C1193.71 866.661 1190.97 871.628 1187.66 875.675C1179.22 886.005 1166.57 891.576 1153.47 892.539C1120.21 894.984 1085.51 881.03 1057.18 864.868C1074.98 870.807 1092.63 876.92 1111.3 879.539C1099.27 871.174 1089.33 863.138 1080.01 851.724C1088.38 857.147 1107.93 869.552 1118.19 866.484C1118.79 866.302 1119.33 865.928 1119.9 865.65C1129.95 870.797 1141.87 873.445 1153.1 871.807C1166.24 869.892 1177.58 862.036 1185.35 851.453Z"/>
	<path fill="#2D292D" d="M1119.9 865.65C1108.53 858.769 1099.9 847.332 1096.64 834.445C1093.01 820.136 1095.4 803.997 1103.24 791.49C1110.42 780.036 1122.62 771.968 1135.86 769.437C1148.56 767.008 1161.88 770.035 1172.51 777.325C1184 785.2 1191.69 797.567 1194.21 811.209C1196.72 824.797 1193.37 840.162 1185.35 851.453C1177.58 862.036 1166.24 869.892 1153.1 871.807C1141.87 873.445 1129.95 870.797 1119.9 865.65Z"/>
	<path fill="#464448" d="M1176.47 797.514C1177.77 798.711 1178.88 800.41 1179.64 802.003C1182.56 808.172 1182.11 816.295 1179.77 822.553C1177.35 829.067 1173.47 833.029 1167.05 835.654C1159.64 838.686 1151.67 838.861 1144.35 835.467C1135.74 831.473 1128.94 823.386 1125.96 814.426C1123.32 806.479 1123.68 797.446 1127.78 790.049C1130.4 785.331 1134.58 781.717 1139.93 780.56C1149.87 778.408 1159.86 783.375 1168.05 788.445C1170.93 791.412 1173.83 794.333 1176.47 797.514Z"/>
	<path fill="#F1EEEE" d="M1168.05 788.445C1170.93 791.412 1173.83 794.333 1176.47 797.514C1175.98 800.155 1175.42 802.732 1174.38 805.222C1173.26 807.902 1171.11 810.249 1168.22 811.02C1165.52 811.741 1162.73 811.14 1160.42 809.666C1157.3 807.679 1154.85 804.338 1154.36 800.623C1154.02 798.118 1154.64 795.644 1156.22 793.653C1159.16 789.939 1163.68 789.296 1168.05 788.445Z"/>
	<path fill="#B7823C" d="M922.36 583.27C932.182 577.397 943.452 573.041 954.075 568.807C1003.04 549.296 1030.56 549.177 1081.27 551.633C1095.34 561.259 1111.11 567.14 1123.28 579.61C1093.68 572.022 1067 572.374 1037.21 579.113C1052.27 583.676 1066.51 587.493 1080.86 594.108C1027.71 593.159 984.492 602.177 945.081 640.513C923.964 661.055 908.528 687.412 899.023 715.183C917.925 698.016 934.436 688.15 959.218 681.708L958.452 682.332C950.163 689.005 941.112 694.576 932.944 701.453C906.449 723.761 888.101 752.895 875.25 784.823C894.853 759.629 914.266 733.495 942.309 717.072C933.797 725.727 925.512 734.253 918.623 744.311C898.387 773.852 882.975 817.811 883.458 853.871C883.742 875.026 890.781 894.249 906.28 908.977C915.095 917.354 925.554 922.715 936.34 928.107C925.071 916.495 915.312 904.864 906.88 890.982C919.218 901.614 930.587 913.051 944.109 922.259C991.233 954.347 1055.02 970.27 1111.8 965.853C1134.2 964.111 1157.87 959.092 1179.08 951.425C1171.85 942.737 1167.05 935.084 1164.92 923.812C1164.34 920.743 1164.18 916.896 1163.04 914.031C1166.32 914.603 1169.33 915.64 1172.47 916.723C1182.89 943.119 1194.29 951.549 1217.3 966.676C1156.6 984.269 1096.2 991.674 1033.5 980.358C985.214 971.642 918.857 951.827 881.607 919.514C871.337 910.606 863.617 899.805 855.927 888.699C863.717 909.08 877.068 920.698 890.565 936.988L887.526 935.114C863.628 920.528 846.957 893.974 840.603 867.112C829.318 819.405 836.038 746.824 856.067 702.308C864.177 684.281 875.278 668.739 885.624 652.068C873.308 658.799 861.854 667.056 849.825 674.296C856.319 665.215 862.695 657.062 870.23 648.833C870.521 648.824 870.816 648.854 871.103 648.806C877.013 647.813 889.051 634.675 895.125 630.931C910.224 621.624 946.058 607.861 955.621 595.261L957.588 594.309L957.402 592.483C947.652 586.897 933.36 585.501 922.36 583.27Z"/>
	<path fill="#2D292D" d="M870.545 691.767C871.75 698.073 858.739 722.584 855.985 730.313C853.566 737.101 851.689 743.747 850.42 750.854C845.662 777.508 845.143 804.943 849.087 831.746C850.294 839.952 852.458 847.968 853.715 856.159L852.656 856.344C848.296 845.238 845.114 833.753 843.326 821.954C837.189 781.444 846.009 725.351 870.545 691.767Z"/>
	<path fill="#A4BFC4" d="M1637.81 1050.44C1656.83 1038.38 1679.01 1031.68 1699.65 1022.92C1713.28 1017.13 1726.74 1009.89 1740.7 1005.05C1700.11 1063.4 1657.56 1121.26 1608.73 1173.06C1572.95 1218.97 1528.5 1258.46 1482.72 1294.11C1356.6 1392.33 1260.47 1432.75 1102.05 1452.43C957.941 1470.34 732.61 1467.28 613.448 1374.6C588.239 1354.99 567.449 1328.25 554.663 1298.94L549.863 1290.39C561.608 1295.32 622.459 1294.3 639.016 1293.71C651.269 1293.28 667.388 1290.68 679.144 1294.18C761.698 1292.15 843.033 1286.14 925.198 1278.15C960.729 1274.7 996.491 1272.05 1031.88 1267.35C1082.45 1260.65 1132.6 1250.11 1181.57 1235.83C1254.09 1214.67 1321.19 1183.75 1391.67 1157.56C1408.58 1148.46 1427.97 1143.26 1445.86 1136.29C1465.28 1128.74 1484.21 1119.21 1504.2 1113.24C1511.66 1108.57 1519.62 1105.01 1528.03 1102.45C1558.75 1084.81 1588.52 1070.06 1621.66 1057.47C1626.47 1054.58 1632.59 1052.61 1637.81 1050.44Z"/>
	<path fill="#6B9298" d="M834.308 1305.39C836.685 1306.56 837.784 1307.28 839.27 1309.49C839.839 1312.6 838.37 1314.82 837.048 1317.52C834.632 1316 833.132 1315.03 831.46 1312.64C831.516 1309.15 832.461 1308.27 834.308 1305.39Z"/>
	<path fill="#2D292D" d="M601.385 1307.9C606.54 1308.22 613.419 1307.98 618.15 1310.1C621.162 1311.46 621.555 1312.61 622.787 1315.58C617.759 1316.17 611.168 1317.26 606.511 1314.94C603.379 1313.37 602.556 1310.95 601.385 1307.9Z"/>
	<path fill="#2D292D" d="M650.745 1310.5C656.781 1310.47 661.956 1310.07 666.941 1314.1L666.671 1315.84C663.533 1317.39 660.963 1317.5 657.5 1317.66C652.081 1317.41 643.974 1317.48 639.33 1314.68L639.881 1312.84C643.345 1310.3 646.622 1310.58 650.745 1310.5Z"/>
	<path fill="#6B9298" d="M1637.81 1050.44L1638.19 1052.13C1633.28 1058.4 1624.13 1063.26 1617.49 1067.54C1586.01 1087.83 1549.1 1108.02 1511.45 1112.87C1509.02 1113.18 1506.65 1113.41 1504.2 1113.24C1511.66 1108.57 1519.62 1105.01 1528.03 1102.45C1558.75 1084.81 1588.52 1070.06 1621.66 1057.47C1626.47 1054.58 1632.59 1052.61 1637.81 1050.44Z"/>
	<path fill="#2D292D" d="M1621.66 1057.47C1612.5 1070.71 1549.72 1098.55 1533.28 1103.29C1531.37 1103.85 1529.77 1103.19 1528.03 1102.45C1558.75 1084.81 1588.52 1070.06 1621.66 1057.47Z"/>
	<path fill="#6B9298" d="M609.207 1322.06C651.765 1349.34 693.361 1379.71 738.994 1401.7C751.499 1407.73 764.138 1413.22 777.329 1417.58C792.834 1422.7 813.334 1425.71 826.811 1435.02C788.715 1431.47 748.407 1418.45 713.841 1402.35C712.099 1392.6 621.369 1348.8 609.607 1328.55C608.074 1325.92 608.308 1324.87 609.207 1322.06Z"/>
	<path fill="#6B9298" d="M1451.26 1153.88L1452.05 1154.12L1451.91 1155.09C1437.32 1165.35 1420.01 1172.69 1403.95 1180.38C1383.58 1190.14 1363.52 1199.63 1342.57 1208.17C1246.4 1247.34 1142.92 1277.18 1039.95 1291.73C1011.97 1295.68 983.885 1297.65 955.777 1300.31C924.233 1303.31 892.616 1307.04 861.203 1311.19C859.76 1309.89 859.684 1309.7 859.109 1307.95C860.321 1306.98 861.476 1306.05 862.99 1305.57C870.641 1303.16 881.51 1303.64 889.626 1302.59C908.082 1300.21 926.479 1297.33 945.026 1295.73C968.043 1293.75 991.165 1293.05 1014.09 1290.03C1045.2 1285.93 1076.19 1280.54 1106.9 1274.06C1189.18 1256.73 1270.69 1232.73 1348.53 1200.86C1383.34 1186.6 1417.32 1170.08 1451.26 1153.88Z"/>
	<path fill="#2D292D" d="M1391.67 1157.56C1385.57 1169.28 1229.07 1227.31 1206.06 1234.57C1082.29 1273.58 952.905 1283.42 824.271 1292.91C770.321 1296.88 712.617 1303.46 658.807 1296.37C664.723 1294.08 672.833 1295.28 679.144 1294.18C761.698 1292.15 843.033 1286.14 925.198 1278.15C960.729 1274.7 996.491 1272.05 1031.88 1267.35C1082.45 1260.65 1132.6 1250.11 1181.57 1235.83C1254.09 1214.67 1321.19 1183.75 1391.67 1157.56Z"/>
	<path fill="#6B9298" d="M1487.59 1271.59C1512.99 1261.88 1561.01 1216.78 1581.67 1197.57C1590.63 1189.23 1598.26 1179.61 1608.73 1173.06C1572.95 1218.97 1528.5 1258.46 1482.72 1294.11C1356.6 1392.33 1260.47 1432.75 1102.05 1452.43C957.941 1470.34 732.61 1467.28 613.448 1374.6C588.239 1354.99 567.449 1328.25 554.663 1298.94C561.68 1299.11 568.566 1299.43 575.541 1300.23C585.206 1308.35 596.358 1316.37 604.03 1326.46C618.042 1348.82 644.222 1364.54 666.872 1377.28C674.167 1381.38 683.37 1385.17 689.233 1391.2C697.338 1395.15 705.575 1398.75 713.841 1402.35C748.407 1418.45 788.715 1431.47 826.811 1435.02C850.575 1440.54 875.012 1443.61 899.347 1445.18C921.211 1443.14 943.633 1444.8 965.61 1443.51C1027.54 1439.85 1088.92 1432.24 1149.96 1421.2C1178.12 1416.11 1206.64 1411.46 1233.41 1401.02C1268.31 1387.41 1302.95 1371.44 1336.86 1355.53C1349.21 1349.74 1362.44 1344.98 1374.23 1338.12C1385.44 1331.6 1396.18 1323.88 1406.98 1316.7C1425.15 1304.62 1443.37 1292.59 1461.36 1280.24C1465.58 1277.34 1486.13 1261.66 1489.46 1260.69C1490.57 1260.36 1491.77 1260.54 1492.92 1260.47L1491.7 1261.65C1482.22 1270.63 1470.99 1278.31 1460.45 1286.02L1460.76 1287.07C1469.53 1286.51 1480.72 1276.9 1487.59 1271.59Z"/>
	<path fill="#2D292D" d="M689.233 1391.2C697.338 1395.15 705.575 1398.75 713.841 1402.35C748.407 1418.45 788.715 1431.47 826.811 1435.02C850.575 1440.54 875.012 1443.61 899.347 1445.18C852.798 1450.12 785.747 1434.84 741.771 1419.27C733.202 1416.24 724.972 1412.23 716.518 1408.9C710.159 1406.38 703.513 1404.71 697.389 1401.6C693.529 1399.65 688.868 1397.55 687.481 1393.24L689.233 1391.2Z"/>
	<path fill="#A4BFC4" d="M339.858 674.112C365.704 626.252 394.022 580.282 428.6 538.151C557.935 380.562 746.565 279.641 949.545 259.973C1099.74 245.419 1257.2 275.429 1389.5 348.729C1434.15 373.472 1475.19 403.083 1514.52 435.517C1540.45 455.774 1564.15 480.77 1586.15 505.154C1693.98 624.648 1762.38 775.266 1782 934.998C1784.46 954.995 1786.74 975.189 1787.45 995.336C1786.25 996.86 1785.5 997.881 1783.48 998.15C1778.94 998.754 1774.06 996.081 1770.69 993.293C1771.11 988.062 1770.68 982.571 1768.05 977.923C1763.56 970.001 1754.62 967.708 1746.47 965.504C1723.58 971.91 1702.15 984.243 1680.81 994.502L1591.74 1036.26C1549.72 1055.59 1507.35 1074.21 1464.81 1092.37C1444 1101.26 1422.57 1109.35 1402.04 1118.83C1402.63 1091.79 1395.21 1064.62 1383.33 1040.53C1383.84 1040.32 1384.36 1040.13 1384.86 1039.92C1415.9 1027.33 1477.16 982.518 1488.88 952.254C1492.4 943.165 1492.89 933.495 1488.81 924.502C1482.66 910.921 1467.3 899.17 1453.6 894.091C1454.55 890.837 1455.33 887.358 1455.66 883.98C1456.42 876.337 1454.09 868.415 1448.98 862.652C1436.22 848.275 1412.16 847.892 1394.46 847.076L1392.2 845.571C1390.33 842.295 1391.09 837.232 1391.08 833.537C1391.01 813.282 1390.74 793.234 1387.48 773.187C1380.64 731.008 1363.53 691.9 1340.04 656.416C1332.65 645.246 1324.73 633.692 1313.74 625.797C1305.41 615.96 1297.7 605.603 1288.96 596.117C1263.91 568.924 1231.77 548.052 1196.44 536.872C1182.57 532.484 1167.55 532.385 1154.1 526.892C1143.42 522.529 1133.44 516.177 1123.07 511.108C1102.65 501.132 1077.71 494.413 1055.05 492.626C1044.45 491.79 1028.31 491.251 1019.7 498.344C1016.64 500.873 1014.69 504.336 1014.35 508.318C1013.93 513.141 1016.02 518.983 1017 523.758C1004.24 525.28 991.295 526.496 978.69 529C957.402 533.23 893.158 549.923 880.797 565.824C877.076 570.61 876.034 575.966 877.122 581.891C878.248 588.025 881.832 592.235 887.036 595.468C889.307 596.878 891.76 598.002 894.181 599.126C871.9 615.876 827.742 652.881 823.881 681.292C823.203 686.28 823.781 692.084 827.052 696.134C828.619 698.074 830.765 699.665 832.701 701.222C827.512 716.218 822.622 731.111 819.413 746.69C810.118 791.804 807.766 857.891 828.282 899.527C832.049 907.173 836.624 914.612 841.771 921.409C784.943 901.603 729.069 880.493 674.599 854.754C650.817 843.516 627.972 830.495 604.577 818.506C584.993 808.47 564.921 799.118 545.688 788.431C530.188 779.818 517.675 767.163 502.099 758.615C459.977 735.497 416.499 714.885 374.047 692.382C365.288 687.995 346.297 680.302 339.858 674.112Z"/>
	<path fill="#E7EEF3" d="M339.858 674.112C365.704 626.252 394.022 580.282 428.6 538.151C557.935 380.562 746.565 279.641 949.545 259.973C1099.74 245.419 1257.2 275.429 1389.5 348.729C1434.15 373.472 1475.19 403.083 1514.52 435.517C1540.45 455.774 1564.15 480.77 1586.15 505.154C1693.98 624.648 1762.38 775.266 1782 934.998C1784.46 954.995 1786.74 975.189 1787.45 995.336C1786.25 996.86 1785.5 997.881 1783.48 998.15C1778.94 998.754 1774.06 996.081 1770.69 993.293C1771.11 988.062 1770.68 982.571 1768.05 977.923C1763.56 970.001 1754.62 967.708 1746.47 965.504C1742.8 927.68 1736.76 889.616 1727.48 852.747C1679.46 661.931 1559.82 495.743 1390.31 394.719C1228.52 298.294 1029.36 271.498 847.223 317.753C685.951 358.71 539.803 454.135 440.01 587.599C415.237 620.73 395.14 656.879 374.047 692.382C365.288 687.995 346.297 680.302 339.858 674.112Z"/>
</svg>
